<?xml version="1.0" encoding="utf-8"?>
<!-- Generator: Adobe Illustrator 23.0.3, SVG Export Plug-In . SVG Version: 6.00 Build 0)  -->
<svg version="1.1" id="Layer_1" xmlns="http://www.w3.org/2000/svg" xmlns:xlink="http://www.w3.org/1999/xlink" x="0px" y="0px"
	 viewBox="0 0 488.6 488.6" style="enable-background:new 0 0 488.6 488.6;" xml:space="preserve">
<g>
	<path d="M256.3,362.8c-3.1-2.9-7.2-4.7-11.8-4.7c-4.5,0-8.6,1.7-11.7,4.6c-0.9-0.9-8-7.9-30.8-13.9c0,0-5.5,22.8,0,53.4
		c0,0,23-9.2,29.8-14.8c3.2,3.4,7.7,5.5,12.6,5.5c5,0,9.6-2.2,12.7-5.6c6.7,5.6,30,14.9,30,14.9c5.5-30.6,0-53.4,0-53.4
		C262.9,355.3,256.4,362.8,256.3,362.8z"/>
	<path d="M455.8,437.9c-0.6-11.9-3.5-88.1-17.4-93.3c0,0-76.5-35.4-92.9-39.2c0,0-8.7-3.5-17.4-10.9c-7.1-6.1-16.5-10-19.5-11.2
		c0,0,0-3.1,0-7c22.5-19.7,17.8-48.6,17.8-48.6c-0.7-8.6,0.9-16.5,2.8-24c20.4-2.3,40.5-34.6,42.7-55.2c1.9-17.8-9.4-21.7-12.9-22.5
		c-3.2-0.7-6.3-0.8-9.2-0.3c0.5-19.9-3.7-48.3-20-72c-18.7-27.2-49.2-41-88.2-39.9c-32.8,1-58.6,11.7-76.7,31.8
		c-24.7,27.4-28,64.2-28.2,79.8c-2.2-0.1-4.5,0-6.9,0.6c-3.5,0.8-14.8,4.6-12.9,22.5c2.1,19.9,20.9,50.7,40.5,54.9
		c2.2,13.1,3.6,23.5,3.6,36.8c0,10.9,1.6,26.8,20.1,39.6v3.7l-30.7,17.9l-98.7,43.4c0,0-4.8,1-6.8,9.6S33.9,408,32.9,434.4
		c0,0-2.3,14.8,10.3,13.5c12.5-1.3,56.3,3.5,138.6,21.2c82.3,17.7,146.7-1.9,175.9-9.6c29.3-7.7,64.6-10.9,77.5-11.3
		C448.1,447.9,456.5,449.8,455.8,437.9z M348.1,141.3c3.3-2.6,6.4-1.9,7.9-1.6c2.2,0.5,2.3,4.2,1.9,7.3
		c-1.6,14.6-14.4,34.4-24.9,40.8c0.5-2.7,0.8-5.4,0.8-8c0-13-9.7,8.2-11.2,11.6c-0.8,1.7-1.5,2.3-2.5,3.8
		c-7.8,10.1-23.7,22.1-23.7,22.1c-5.6-32.5-55.1-24-55.1-24c-40.9-7.8-47.3,24-47.3,24c-8.5-2.1-16.9-10.6-31.8-33.9
		c-8.9-13.9-9.1-5.4-7.9,3.7c-10.3-7.1-22.2-25.9-23.7-40c-0.3-3.1-0.3-6.8,1.9-7.3c2.5-0.5,8.5-1.8,13.5,9.7
		c1.5,3.5,5.7,5.2,9.2,3.6c3.5-1.5,5.2-5.7,3.6-9.2c-2.2-5.1-5-9.2-8.3-12.2c-0.2-2.9-2.1-47.2,24.6-76.7
		c15.5-17.1,37.9-26.3,66.7-27.1c34.4-1,60.1,10.3,76.2,33.8c17.5,25.4,19,57.6,16.9,73c-3,3.7-5.5,8.5-7.3,14.2
		c-1.2,3.7,0.8,7.6,4.5,8.8c3.7,1.2,7.6-0.8,8.8-4.5c0.9-2.8,1.9-5,2.9-6.8C344,146.4,345.6,142.7,348.1,141.3z M244,236.3
		c-15,0.4-17.4,3.2-17.4,3.2l5.6,1.4c0,0-5.2,14.1-17.9,11.3c-12.7-2.8-17.9-26.4,0-30.1s49.4-4.2,63.5,0s3.8,27.6-6.1,30.5
		c-9.9,2.9-16.5-8.4-14.6-12.1l3.8-0.9C261,239.5,259,235.9,244,236.3z M205.3,291.1c41.6,13.3,72.7,0,72.7,0
		c6.4-1.5,12-3.5,16.9-5.9v5.9c-4,30.2-40.2,43.4-49.3,46.3c-43.5-18-50.3-41.9-51-44.9v-5.4C197.9,288.5,201.5,289.9,205.3,291.1z
		 M267.7,462.1h-47.3c0,0-37.9-75.3-45.3-158.9l7.2-4.3c3.4,10.1,16,34.5,60.5,52.2l2.1,0.8l2.2-0.6c2.2-0.6,50.2-13.3,60.2-51.5
		l6.5,3.1C313.7,302.9,314.9,366.9,267.7,462.1z"/>
	<path d="M229.4,170.5c5.6-14,7.4-20.5,7.9-22.2l5.6-0.2l5.6,0.2c0.4,1.7,2.3,8.2,7.9,22.2c6.6,16.5,29.6,15.5,44.7,12.2
		c15.1-3.3,22.1-22.6,18.4-41.9c-3.8-19.3-18.8-17.4-43.3-16c-24.5,1.4-27.3,14.1-27.3,14.1h-0.1H237h-0.1c0,0-2.8-12.7-27.3-14.1
		c-24.5-1.4-39.5-3.3-43.3,16s3.3,38.6,18.4,41.9C199.7,186,222.8,187,229.4,170.5z"/>
</g>
</svg>
